<?xml version="1.0" encoding="iso-8859-1"?>
<!-- Generator: Adobe Illustrator 16.0.4, SVG Export Plug-In . SVG Version: 6.00 Build 0)  -->
<!DOCTYPE svg PUBLIC "-//W3C//DTD SVG 1.1//EN" "http://www.w3.org/Graphics/SVG/1.1/DTD/svg11.dtd">
<svg version="1.1" id="Capa_1" xmlns="http://www.w3.org/2000/svg" xmlns:xlink="http://www.w3.org/1999/xlink" x="0px" y="0px"
	 width="40px" height="37.999px" viewBox="0 0 40 37.999" style="enable-background:new 0 0 40 37.999;" xml:space="preserve">
<g id="_x32_23._Calender">
	<g>
		<path d="M21.526,22.169c-0.174,0.238-0.304,0.509-0.39,0.813c-0.087,0.305-0.13,0.721-0.13,1.25s0.123,1.038,0.371,1.527
			c0.247,0.49,0.594,0.9,1.039,1.23c0.892,0.675,2.085,1.012,3.583,1.012c1.547,0,2.76-0.337,3.639-1.012
			c0.433-0.33,0.77-0.74,1.012-1.23c0.241-0.489,0.361-1.091,0.361-1.806c0-0.7-0.198-1.342-0.594-1.925
			c-0.235-0.33-0.662-0.7-1.281-1.11V20.84c0.198-0.172,0.384-0.345,0.558-0.517c0.594-0.568,0.891-1.349,0.891-2.341
			c0-1.243-0.445-2.229-1.337-2.957c-0.842-0.688-1.924-1.031-3.248-1.031s-2.401,0.344-3.23,1.031
			c-0.408,0.331-0.732,0.744-0.975,1.24c-0.241,0.496-0.361,1.082-0.361,1.756c0,0.675,0.154,1.277,0.464,1.806
			c0.173,0.278,0.501,0.615,0.983,1.013v0.079C22.263,21.329,21.811,21.745,21.526,22.169z M24.7,17.963
			c0-0.384,0.127-0.712,0.381-0.982c0.254-0.271,0.566-0.407,0.938-0.407c0.358,0,0.665,0.136,0.919,0.407
			c0.253,0.271,0.381,0.599,0.381,0.982v0.456c0,0.384-0.128,0.711-0.381,0.982c-0.254,0.271-0.561,0.406-0.919,0.406
			c-0.371,0-0.684-0.136-0.938-0.406c-0.254-0.271-0.381-0.599-0.381-0.982V17.963z M24.7,23.34c0-0.384,0.127-0.711,0.381-0.982
			s0.566-0.407,0.938-0.407c0.358,0,0.665,0.136,0.919,0.407c0.253,0.271,0.381,0.599,0.381,0.982v0.654
			c0,0.384-0.128,0.711-0.381,0.982c-0.254,0.271-0.561,0.406-0.919,0.406c-0.371,0-0.684-0.136-0.938-0.406
			c-0.254-0.271-0.381-0.599-0.381-0.982V23.34z M30,8c1.104,0,2-0.896,2-2V2c0-1.105-0.896-2-2-2s-2,0.895-2,2v4
			C28,7.104,28.896,8,30,8z M26,4H14v4h12V4z M9.054,18.72v0.382h3.288v-0.562c0-0.402,0.127-0.737,0.383-1.006
			c0.255-0.268,0.562-0.402,0.924-0.402h0.243c0.361,0,0.669,0.138,0.925,0.412c0.255,0.275,0.383,0.607,0.383,0.996
			c0,0.831-0.337,1.535-1.009,2.111l-3.698,3.138c-0.56,0.47-0.95,0.976-1.167,1.519c-0.218,0.543-0.327,1.196-0.327,1.96v0.725
			h9.992v-3.379h-4.912l2.036-1.528c1.27-0.952,2.11-1.891,2.521-2.815c0.224-0.51,0.336-1.112,0.336-1.81
			c0-1.314-0.417-2.387-1.251-3.218c-0.848-0.831-1.955-1.247-3.325-1.247h-0.579c-1.469,0-2.646,0.455-3.529,1.367
			C9.465,16.233,9.054,17.353,9.054,18.72z M36,4h-2v4h2v26H4V8h2V4H4C1.791,4,0,5.79,0,8v25.999c0,2.21,1.791,4,4,4h32
			c2.209,0,4-1.79,4-4V8C40,5.79,38.209,4,36,4z M10,8c1.104,0,2-0.896,2-2V2c0-1.105-0.896-2-2-2S8,0.895,8,2v4
			C8,7.104,8.896,8,10,8z"/>
	</g>
</g>
<g>
</g>
<g>
</g>
<g>
</g>
<g>
</g>
<g>
</g>
<g>
</g>
<g>
</g>
<g>
</g>
<g>
</g>
<g>
</g>
<g>
</g>
<g>
</g>
<g>
</g>
<g>
</g>
<g>
</g>
</svg>
