<?xml version="1.0" encoding="utf-8"?>
<!-- Generator: Adobe Illustrator 16.0.4, SVG Export Plug-In . SVG Version: 6.00 Build 0)  -->
<!DOCTYPE svg PUBLIC "-//W3C//DTD SVG 1.1//EN" "http://www.w3.org/Graphics/SVG/1.1/DTD/svg11.dtd">
<svg version="1.1" id="Layer_1" xmlns="http://www.w3.org/2000/svg" xmlns:xlink="http://www.w3.org/1999/xlink" x="0px" y="0px"
	 width="50px" height="50px" viewBox="0 0 50 50" enable-background="new 0 0 50 50" xml:space="preserve">
<path d="M38.902,26.253v12.384c0,1.104-0.896,2-2,2H13.098c-1.104,0-2-0.896-2-2V26.253c0-0.69,0.355-1.332,0.94-1.696l11.901-7.433
	c0.648-0.405,1.472-0.405,2.119,0l11.902,7.433C38.547,24.921,38.902,25.562,38.902,26.253z M43.768,20.725L26.061,9.667
	c-0.648-0.405-1.471-0.405-2.119,0L6.233,20.725c-0.937,0.585-1.221,1.819-0.637,2.756s1.816,1.223,2.756,0.637L25,13.721
	l16.646,10.396c0.33,0.206,0.696,0.304,1.059,0.304c0.667,0,1.318-0.333,1.697-0.941C44.988,22.542,44.703,21.31,43.768,20.725z"/>
</svg>
